<svg width="226" height="82" viewBox="0 0 226 82" fill="none" xmlns="http://www.w3.org/2000/svg">
<g clip-path="url(#clip0_28_214)">
<path d="M95.505 51.5462V52.9999C95.505 56.9974 94.2806 59.5558 91.5869 60.835C94.8424 62.1142 96.1101 65.0506 96.1101 69.1644V72.3333C96.1101 78.3369 92.9698 81.564 86.9053 81.564H77.3691V42.5918H86.5163C92.7969 42.5918 95.505 45.5427 95.505 51.5462ZM83.4336 48.1593V58.4365H85.7961C88.0577 58.4365 89.4405 57.4335 89.4405 54.3227V52.1568C89.4405 49.3803 88.5042 48.1593 86.3579 48.1593H83.4336ZM83.4336 64.004V75.9529H86.9053C88.9364 75.9529 90.0455 75.008 90.0455 72.1153V68.7283C90.0455 65.1087 88.8931 64.004 86.1274 64.004H83.4336Z" fill="#00CB8D"/>
<path d="M105.79 58.9889H114.116V64.5563H105.79V75.9529H116.263V81.5058H99.7402V42.5918H116.263V48.1593H105.79V58.9889Z" fill="#00CB8D"/>
<path d="M125.683 68.612L118.02 42.5918H124.358L128.982 60.3262L133.606 42.5918H139.368L131.734 68.612V81.5058H125.683V68.612Z" fill="#00CB8D"/>
<path d="M162.496 51.9383C162.496 45.7022 165.751 42.1553 171.7 42.1553C177.65 42.1553 180.891 45.7022 180.891 51.9383V72.173C180.891 78.3946 177.65 81.956 171.7 81.956C165.751 81.956 162.496 78.3946 162.496 72.173V51.9383ZM168.56 72.5509C168.56 75.3419 169.77 76.3886 171.7 76.3886C173.631 76.3886 174.841 75.3419 174.841 72.5509V51.5458C174.841 48.7693 173.631 47.7082 171.7 47.7082C169.77 47.7082 168.56 48.7693 168.56 51.5458V72.5509Z" fill="#00CB8D"/>
<path d="M147.928 42.5918V72.6822C147.928 75.4587 149.138 76.4617 151.069 76.4617C152.999 76.4617 154.209 75.4587 154.209 72.6822V42.5918H159.971V72.217C159.971 78.4532 156.888 82.0001 150.939 82.0001C144.99 82.0001 141.893 78.4532 141.893 72.217V42.5918H147.928Z" fill="#00CB8D"/>
<path d="M182.943 42.5918H201.67V48.1593H195.332V81.5058H189.282V48.1593H182.943V42.5918Z" fill="#00CB8D"/>
<path d="M222.932 78.6562H225.813V81.5635H222.932V78.6562Z" fill="#002542"/>
<path d="M218.74 68.0449H221.247C224.272 68.0449 226 69.4986 226 72.5221C226 75.5457 224.272 76.9994 221.247 76.9994H211.408C208.383 76.9994 206.654 75.5457 206.654 72.5221C206.654 69.4986 208.383 68.0449 211.408 68.0449H213.194V70.8795H211.163C209.809 70.8795 209.29 71.4901 209.29 72.4349C209.29 73.3798 209.809 73.9903 211.163 73.9903H221.376C222.73 73.9903 223.22 73.3943 223.22 72.4349C223.22 71.4755 222.73 70.8795 221.376 70.8795H218.682L218.74 68.0449Z" fill="#002542"/>
<path d="M211.408 66.4747C208.383 66.4747 206.654 64.8611 206.654 61.9103C206.654 58.9594 208.383 57.3604 211.408 57.3604H221.247C224.272 57.3604 226 58.9594 226 61.9103C226 64.8611 224.272 66.4747 221.247 66.4747H211.408ZM221.491 63.4657C222.845 63.4657 223.364 62.8697 223.364 61.9103C223.364 60.9508 222.845 60.3549 221.491 60.3549H211.278C209.924 60.3549 209.406 60.9508 209.406 61.9103C209.406 62.8697 209.924 63.4657 211.278 63.4657H221.491Z" fill="#002542"/>
<path d="M220.296 49.0605L206.87 47.0254V42.8389H225.784V45.7462H212.214L225.784 47.8103V50.5868L212.402 52.8254H225.784V55.442H206.87V51.27L220.296 49.0605Z" fill="#002542"/>
<path d="M40.5789 30.3809H34.8169V53.0286H0V81.5055H40.1899C46.9066 81.4939 53.3449 78.7963 58.0943 74.0036C62.8437 69.2109 65.5169 62.7138 65.5283 55.9359C65.5216 49.2255 62.9026 42.7865 58.2357 38.0063C53.5689 33.2261 47.2277 30.4876 40.5789 30.3809V30.3809ZM54.0187 69.9054C52.2092 71.7491 50.0552 73.2124 47.6815 74.2104C45.3078 75.2085 42.7615 75.7216 40.1899 75.72H5.762V58.8432H40.5789V36.1809C44.4166 36.2597 48.1467 37.4752 51.3052 39.6764C54.4637 41.8775 56.9113 44.9672 58.3435 48.561C59.7757 52.1548 60.1293 56.0942 59.3604 59.8892C58.5914 63.6842 56.7339 67.1673 54.0187 69.9054V69.9054Z" fill="#002542"/>
<path d="M34.8169 18.156V36.1812H40.5789V15.2487L34.8169 18.156ZM5.762 18.156L20.2822 7.26821V0H20.167L0 15.2487V36.1812H30.7979V30.3666H5.762V18.156Z" fill="#002542"/>
<path d="M40.5789 15.2492L34.8169 18.1564L20.2822 7.19598V0.0585938L22.1549 1.35234L40.5789 15.2492Z" fill="#00CB8D"/>
</g>
<defs>
<clipPath id="clip0_28_214">
<rect width="226" height="82" fill="white"/>
</clipPath>
</defs>
</svg>
