<svg width="108" height="39" viewBox="0 0 108 39" fill="none" xmlns="http://www.w3.org/2000/svg">
<g clip-path="url(#clip0_28_242)">
<path d="M45.6399 24.5157V25.207C45.6399 27.1083 45.0547 28.3251 43.7675 28.9335C45.3232 29.5419 45.929 30.9385 45.929 32.895V34.4022C45.929 37.2575 44.4283 38.7924 41.5302 38.7924H36.9731V20.2568H41.3444C44.3457 20.2568 45.6399 21.6603 45.6399 24.5157ZM39.8712 22.9048V27.7927H41.0002C42.0809 27.7927 42.7418 27.3157 42.7418 25.8362V24.806C42.7418 23.4855 42.2943 22.9048 41.2686 22.9048H39.8712ZM39.8712 30.4407V36.1237H41.5302C42.5008 36.1237 43.0309 35.6743 43.0309 34.2985V32.6876C43.0309 30.9661 42.4802 30.4407 41.1585 30.4407H39.8712Z" fill="#00CB8D"/>
<path d="M50.5548 28.0555H54.5336V30.7034H50.5548V36.1237H55.5593V38.7647H47.6636V20.2568H55.5593V22.9048H50.5548V28.0555Z" fill="#00CB8D"/>
<path d="M60.0611 32.6323L56.3989 20.2568H59.4278L61.6375 28.6915L63.8472 20.2568H66.6007L62.9523 32.6323V38.7647H60.0611V32.6323Z" fill="#00CB8D"/>
<path d="M77.5044 24.7027C77.5044 21.7367 79.0601 20.0498 81.9031 20.0498C84.7462 20.0498 86.295 21.7367 86.295 24.7027V34.3265C86.295 37.2856 84.7462 38.9794 81.9031 38.9794C79.0601 38.9794 77.5044 37.2856 77.5044 34.3265V24.7027ZM80.4025 34.5063C80.4025 35.8337 80.9807 36.3315 81.9031 36.3315C82.8256 36.3315 83.4038 35.8337 83.4038 34.5063V24.516C83.4038 23.1955 82.8256 22.6908 81.9031 22.6908C80.9807 22.6908 80.4025 23.1955 80.4025 24.516V34.5063Z" fill="#00CB8D"/>
<path d="M70.022 20.2568V34.5681C70.022 35.8886 70.6003 36.3657 71.5227 36.3657C72.4451 36.3657 73.0234 35.8886 73.0234 34.5681V20.2568H75.7769V34.3469C75.7769 37.3129 74.3037 38.9998 71.4607 38.9998C68.6177 38.9998 67.1377 37.3129 67.1377 34.3469V20.2568H70.022Z" fill="#00CB8D"/>
<path d="M87.4243 20.2568H96.3733V22.9048H93.3444V38.7647H90.4532V22.9048H87.4243V20.2568Z" fill="#00CB8D"/>
<path d="M106.534 37.4102H107.91V38.7929H106.534V37.4102Z" fill="#002542"/>
<path d="M104.53 32.3633H105.728C107.174 32.3633 108 33.0546 108 34.4927C108 35.9307 107.174 36.6221 105.728 36.6221H101.027C99.5809 36.6221 98.7549 35.9307 98.7549 34.4927C98.7549 33.0546 99.5809 32.3633 101.027 32.3633H101.88V33.7114H100.91C100.262 33.7114 100.015 34.0018 100.015 34.4512C100.015 34.9006 100.262 35.191 100.91 35.191H105.79C106.437 35.191 106.671 34.9075 106.671 34.4512C106.671 33.9949 106.437 33.7114 105.79 33.7114H104.503L104.53 32.3633Z" fill="#002542"/>
<path d="M101.027 31.6161C99.5809 31.6161 98.7549 30.8487 98.7549 29.4452C98.7549 28.0418 99.5809 27.2812 101.027 27.2812H105.728C107.174 27.2812 108 28.0418 108 29.4452C108 30.8487 107.174 31.6161 105.728 31.6161H101.027ZM105.845 30.185C106.492 30.185 106.74 29.9015 106.74 29.4452C106.74 28.9889 106.492 28.7055 105.845 28.7055H100.965C100.318 28.7055 100.07 28.9889 100.07 29.4452C100.07 29.9015 100.318 30.185 100.965 30.185H105.845Z" fill="#002542"/>
<path d="M105.274 23.3341L98.8584 22.3661V20.375H107.897V21.7577H101.412L107.897 22.7395V24.06L101.502 25.1247H107.897V26.3692H98.8584V24.3849L105.274 23.3341Z" fill="#002542"/>
<path d="M19.3917 14.4492H16.6382V25.2207H0V38.7646H19.2058C22.4155 38.7591 25.4922 37.4761 27.7619 35.1966C30.0315 32.9171 31.309 29.8271 31.3144 26.6034C31.3112 23.4119 30.0597 20.3494 27.8295 18.076C25.5993 15.8025 22.569 14.5 19.3917 14.4492V14.4492ZM25.8143 33.2475C24.9495 34.1244 23.9202 34.8203 22.7858 35.295C21.6515 35.7697 20.4347 36.0137 19.2058 36.0129H2.75352V27.9862H19.3917V17.2078C21.2256 17.2452 23.0081 17.8234 24.5175 18.8703C26.0269 19.9171 27.1965 21.3866 27.881 23.0958C28.5654 24.8051 28.7344 26.6787 28.3669 28.4837C27.9994 30.2886 27.1118 31.9452 25.8143 33.2475V33.2475Z" fill="#002542"/>
<path d="M16.6382 8.63517V17.2081H19.3917V7.25244L16.6382 8.63517ZM2.75352 8.63517L9.6924 3.45683V0H9.63733L0 7.25244V17.2081H14.7176V14.4426H2.75352V8.63517Z" fill="#002542"/>
<path d="M19.3917 7.25213L16.6381 8.63486L9.69238 3.42195V0.0273438L10.5873 0.64266L19.3917 7.25213Z" fill="#00CB8D"/>
</g>
<defs>
<clipPath id="clip0_28_242">
<rect width="108" height="39" fill="white"/>
</clipPath>
</defs>
</svg>
