<svg width="138" height="230" viewBox="0 0 138 230" fill="none" xmlns="http://www.w3.org/2000/svg">
<path d="M89.7578 53.7042H79.4796V93.7375H17.374V144.075H89.064C101.045 144.054 112.529 139.286 121.001 130.814C129.473 122.342 134.242 110.858 134.262 98.8766C134.25 87.015 129.578 75.633 121.254 67.1834C112.929 58.7337 101.618 53.8929 89.7578 53.7042V53.7042ZM113.732 123.57C110.504 126.829 106.661 129.415 102.427 131.18C98.193 132.944 93.651 133.851 89.064 133.848H27.6522V104.016H89.7578V63.9567C96.6034 64.0959 103.257 66.2446 108.891 70.1354C114.525 74.0263 118.891 79.4877 121.446 85.8403C124.001 92.1929 124.631 99.1563 123.26 105.865C121.888 112.573 118.575 118.73 113.732 123.57V123.57Z" fill="white"/>
<path d="M79.4796 32.0935V63.9557H89.7578V26.9544L79.4796 32.0935ZM27.6522 32.0935L53.5531 12.8477V0H53.3475L17.374 26.9544V63.9557H72.3106V53.6775H27.6522V32.0935Z" fill="white"/>
<path d="M89.758 26.9542L79.4798 32.0933L53.5532 12.719V0.102608L56.8936 2.38949L89.758 26.9542Z" fill="#00CB8D"/>
<path d="M16.8384 201.982V203.319C16.8384 206.997 15.7016 209.351 13.2006 210.528C16.2232 211.705 17.4001 214.407 17.4001 218.192V221.107C17.4001 226.631 14.4845 229.6 8.85387 229.6H0V193.743H8.49276C14.324 193.743 16.8384 196.458 16.8384 201.982ZM5.63063 198.866V208.321H7.82404C9.92382 208.321 11.2078 207.398 11.2078 204.536V202.543C11.2078 199.989 10.3384 198.866 8.34564 198.866H5.63063ZM5.63063 213.444V224.437H8.85387C10.7397 224.437 11.7695 223.568 11.7695 220.907V217.79C11.7695 214.46 10.6995 213.444 8.13165 213.444H5.63063Z" fill="#00CB8D"/>
<path d="M26.3881 208.829H34.1185V213.952H26.3881V224.437H36.1113V229.546H20.7709V193.743H36.1113V198.866H26.3881V208.829Z" fill="#00CB8D"/>
<path d="M44.858 217.683L37.7428 193.743H43.6275L47.9207 210.06L52.2139 193.743H57.5636L50.4752 217.683V229.546H44.858V217.683Z" fill="#00CB8D"/>
<path d="M78.9376 202.342C78.9376 196.605 81.9602 193.341 87.4838 193.341C93.0075 193.341 96.0167 196.605 96.0167 202.342V220.96C96.0167 226.684 93.0075 229.961 87.4838 229.961C81.9602 229.961 78.9376 226.684 78.9376 220.96V202.342ZM84.5682 221.307C84.5682 223.875 85.6916 224.838 87.4838 224.838C89.276 224.838 90.3994 223.875 90.3994 221.307V201.981C90.3994 199.427 89.276 198.45 87.4838 198.45C85.6916 198.45 84.5682 199.427 84.5682 201.981V221.307Z" fill="#00CB8D"/>
<path d="M65.4622 193.742V221.427C65.4622 223.982 66.5856 224.905 68.3778 224.905C70.17 224.905 71.2934 223.982 71.2934 221.427V193.742H76.6432V220.999C76.6432 226.737 73.781 230 68.2574 230C62.7338 230 59.8583 226.737 59.8583 220.999V193.742H65.4622Z" fill="#00CB8D"/>
<path d="M98.0213 193.743H115.408V198.866H109.523V229.546H103.906V198.866H98.0213V193.743Z" fill="#00CB8D"/>
<path d="M135.148 226.926H137.823V229.601H135.148V226.926Z" fill="white"/>
<path d="M131.256 217.161H133.583C136.392 217.161 137.997 218.499 137.997 221.281C137.997 224.062 136.392 225.4 133.583 225.4H124.449C121.64 225.4 120.035 224.062 120.035 221.281C120.035 218.499 121.64 217.161 124.449 217.161H126.107V219.769H124.221C122.964 219.769 122.483 220.331 122.483 221.2C122.483 222.07 122.964 222.631 124.221 222.631H133.704C134.961 222.631 135.416 222.083 135.416 221.2C135.416 220.318 134.961 219.769 133.704 219.769H131.203L131.256 217.161Z" fill="white"/>
<path d="M124.449 215.717C121.64 215.717 120.035 214.233 120.035 211.518C120.035 208.803 121.64 207.331 124.449 207.331H133.583C136.392 207.331 137.997 208.803 137.997 211.518C137.997 214.233 136.392 215.717 133.583 215.717H124.449ZM133.811 212.949C135.068 212.949 135.549 212.4 135.549 211.518C135.549 210.635 135.068 210.087 133.811 210.087H124.328C123.071 210.087 122.59 210.635 122.59 211.518C122.59 212.4 123.071 212.949 124.328 212.949H133.811Z" fill="white"/>
<path d="M132.701 199.694L120.236 197.822V193.97H137.797V196.645H125.198L137.797 198.544V201.098L125.372 203.158H137.797V205.565H120.236V201.727L132.701 199.694Z" fill="white"/>
</svg>
