<svg width="24" height="24" viewBox="0 0 24 24" fill="none" xmlns="http://www.w3.org/2000/svg">
<path d="M17.7303 16.6697C17.4374 16.3768 16.9626 16.3768 16.6697 16.6697C16.3768 16.9626 16.3768 17.4374 16.6697 17.7303L17.7303 16.6697ZM19.4697 20.5303C19.7626 20.8232 20.2374 20.8232 20.5303 20.5303C20.8232 20.2374 20.8232 19.7626 20.5303 19.4697L19.4697 20.5303ZM19.95 11.6C19.95 6.98842 16.2116 3.25 11.6 3.25V4.75C15.3832 4.75 18.45 7.81685 18.45 11.6H19.95ZM11.6 3.25C6.98842 3.25 3.25 6.98842 3.25 11.6H4.75C4.75 7.81685 7.81685 4.75 11.6 4.75V3.25ZM3.25 11.6C3.25 16.2116 6.98842 19.95 11.6 19.95V18.45C7.81685 18.45 4.75 15.3832 4.75 11.6H3.25ZM11.6 19.95C16.2116 19.95 19.95 16.2116 19.95 11.6H18.45C18.45 15.3832 15.3832 18.45 11.6 18.45V19.95ZM16.6697 17.7303L19.4697 20.5303L20.5303 19.4697L17.7303 16.6697L16.6697 17.7303Z" fill="#00CB8D"/>
</svg>
